<?xml version="1.0" encoding="UTF-8" standalone="no"?>
<!-- Created with Inkscape (http://www.inkscape.org/) -->

<svg
   width="5.0799999cm"
   height="3.7999997cm"
   viewBox="0 0 50.799997 37.999998"
   version="1.1"
   id="svg1"
   xml:space="preserve"
   xmlns:xlink="http://www.w3.org/1999/xlink"
   xmlns="http://www.w3.org/2000/svg"
   xmlns:svg="http://www.w3.org/2000/svg"><defs
     id="defs1"><linearGradient
       id="linearGradient39"><stop
         style="stop-color:#8a9a9d;stop-opacity:1;"
         offset="0"
         id="stop39" /><stop
         style="stop-color:#069ea1;stop-opacity:1;"
         offset="1"
         id="stop40" /></linearGradient><linearGradient
       id="linearGradient24"><stop
         style="stop-color:#5641d6;stop-opacity:1;"
         offset="0"
         id="stop24" /><stop
         style="stop-color:#ff41d6;stop-opacity:1;"
         offset="1"
         id="stop25" /></linearGradient><clipPath
       clipPathUnits="userSpaceOnUse"
       id="clipPath4"><path
         d="M 5.1503906,5.1503906 H 594.84961 V 594.84961 H 5.1503906 Z"
         transform="translate(-351.63571,-240.52341)"
         id="path4" /></clipPath><linearGradient
       xlink:href="#linearGradient24"
       id="linearGradient25"
       x1="-143.35742"
       y1="-48.216797"
       x2="29.099609"
       y2="-48.216797"
       gradientUnits="userSpaceOnUse" /><linearGradient
       xlink:href="#linearGradient39"
       id="linearGradient50"
       gradientUnits="userSpaceOnUse"
       x1="1.7349105"
       y1="18.967611"
       x2="49.084427"
       y2="18.967611" /><linearGradient
       xlink:href="#linearGradient39"
       id="linearGradient51"
       gradientUnits="userSpaceOnUse"
       x1="1.7349105"
       y1="18.967611"
       x2="49.084427"
       y2="18.967611" /><linearGradient
       xlink:href="#linearGradient39"
       id="linearGradient52"
       gradientUnits="userSpaceOnUse"
       x1="1.7349105"
       y1="18.967611"
       x2="49.084427"
       y2="18.967611" /><linearGradient
       xlink:href="#linearGradient39"
       id="linearGradient53"
       gradientUnits="userSpaceOnUse"
       x1="1.7349105"
       y1="18.967611"
       x2="49.084427"
       y2="18.967611" /><linearGradient
       xlink:href="#linearGradient39"
       id="linearGradient54"
       gradientUnits="userSpaceOnUse"
       x1="1.7349105"
       y1="18.967611"
       x2="49.084427"
       y2="18.967611" /><linearGradient
       xlink:href="#linearGradient39"
       id="linearGradient55"
       gradientUnits="userSpaceOnUse"
       x1="1.7349105"
       y1="18.967611"
       x2="49.084427"
       y2="18.967611" /><linearGradient
       xlink:href="#linearGradient39"
       id="linearGradient56"
       gradientUnits="userSpaceOnUse"
       x1="1.7349105"
       y1="18.967611"
       x2="49.084427"
       y2="18.967611" /><linearGradient
       xlink:href="#linearGradient39"
       id="linearGradient57"
       gradientUnits="userSpaceOnUse"
       x1="1.7349105"
       y1="18.967611"
       x2="49.084427"
       y2="18.967611" /></defs><g
     id="layer1"><path
       style="color:#000000;fill:url(#linearGradient50);fill-opacity:1;stroke-width:1.41601;stroke-linecap:round;stroke-dashoffset:12.825;-inkscape-stroke:none"
       d="m 12.122456,14.53135 a 1.5930103,1.5930103 0 0 0 -1.167127,0.34867 c -0.04189,0.03402 -0.08498,0.06816 -0.12786,0.103174 a 1.5930103,1.5930103 0 0 0 -0.225549,2.241579 1.5930103,1.5930103 0 0 0 2.240864,0.228222 c 0.03932,-0.0321 0.08016,-0.06604 0.121076,-0.09926 a 1.5930103,1.5930103 0 0 0 0.230892,-2.240148 1.5930103,1.5930103 0 0 0 -1.072306,-0.582234 z"
       id="path13" /><path
       style="color:#000000;fill:url(#linearGradient51);fill-opacity:1;stroke-width:1.41601;stroke-linecap:round;stroke-dashoffset:12.825;-inkscape-stroke:none"
       d="m 30.239262,7.7410805 c -2.157795,-0.00295 -4.40986,0.2057798 -6.680639,0.7295479 a 1.5930103,1.5930103 0 0 0 -0.03588,0.059096 1.5930103,1.5930103 0 0 0 -0.129152,-0.02024 c -0.248109,0.058757 -0.495,0.1208784 -0.743113,0.1874163 -2.223256,0.5957136 -4.283168,1.4583433 -6.165197,2.4710553 a 1.5930103,1.5930103 0 0 0 -0.647486,2.160018 1.5930103,1.5930103 0 0 0 2.157346,0.64677 c 1.69355,-0.911292 3.52526,-1.675795 5.479703,-2.199483 l 7.25e-4,-0.0027 c 0.217823,-0.05841 0.435754,-0.111199 0.653473,-0.162761 a 1.5930103,1.5930103 0 0 0 0.09464,-0.04335 1.5930103,1.5930103 0 0 0 0.05218,0.0083 c 2.001804,-0.461729 4.011194,-0.650411 5.9601,-0.647748 A 1.5930103,1.5930103 0 0 0 31.830566,9.335639 1.5930103,1.5930103 0 0 0 30.239272,7.7410657 Z"
       id="path12" /><path
       style="color:#000000;fill:url(#linearGradient52);fill-opacity:1;stroke-width:1.41601;stroke-linecap:round;stroke-dashoffset:12.825;-inkscape-stroke:none"
       d="m 37.674508,8.5336668 c -0.05457,-0.011237 -0.110207,-0.024633 -0.165104,-0.035647 a 1.5930103,1.5930103 0 0 0 -1.875286,1.2498003 1.5930103,1.5930103 0 0 0 1.249798,1.8752859 c 0.04973,0.0099 0.09707,0.02044 0.146418,0.03059 a 1.5930103,1.5930103 0 0 0 1.883812,-1.238873 1.5930103,1.5930103 0 0 0 -1.239638,-1.8811543 z"
       id="path3-2" /><path
       id="path3-7"
       d="m -124.21875,-164.35156 h 53.173828 c 7.12135,0 11.987274,1.36529 14.828125,3.93554 2.850146,2.57866 4.310547,5.95473 4.310547,10.07813 0,4.22732 -1.465184,7.64832 -4.310547,10.22266 -2.840851,2.57025 -7.706775,3.93554 -14.828125,3.93554 h -18.947265 v 86.267581 l 1.412109,-0.853516 c 7.360153,-4.456161 14.757263,-7.793432 22.195312,-10.013672 7.431416,-2.22211 14.96292,-3.330078 22.585938,-3.330078 17.661256,0 33.541207,5.308656 47.6328124,15.925781 C 20.692205,-35.465192 29.099609,-19.345119 29.099609,0.14648437 29.099609,17.832633 21.993802,33.544955 7.7050781,47.304687 -6.5706763,61.049077 -23.82062,67.917969 -44.091797,67.917969 c -7.815214,0 -15.440499,-1.159079 -22.867187,-3.47461 -7.426237,-2.314466 -14.618035,-5.838801 -21.580078,-10.574218 l -1.453125,-0.988282 v 11.082032 h -34.226563 c -7.12353,0 -11.98936,-1.363468 -14.83008,-3.933594 -2.84996,-2.578495 -4.30859,-5.954383 -4.30859,-10.078125 0,-4.227658 1.46361,-7.650624 4.30859,-10.22461 2.84072,-2.570125 7.70655,-3.933593 14.83008,-3.933593 h 6.05664 V -136.17969 h -6.05664 c -7.02394,0 -11.86736,-1.36298 -14.76172,-3.9414 -2.89217,-2.57648 -4.37695,-5.99367 -4.37695,-10.2168 0,-4.12374 1.45863,-7.49963 4.30859,-10.07813 2.84086,-2.57025 7.7067,-3.93554 14.83008,-3.93554 z m 79.6875,128.412107 c -12.807568,0 -23.5952,3.846819 -32.330078,11.585937 -8.67671,7.680822 -13.13086,15.7000317 -13.130859,24.06054725 0,7.39021305 3.08495,15.00749975 9.132812,22.83984375 8.986089,11.479782 21.094617,17.201172 36.328125,17.201172 9.430427,0 17.685532,-2.209085 24.740234,-6.660156 7.012428,-4.427455 12.2311667,-9.964875 15.6386723,-16.625 C -0.80675256,9.9128724 0.9296875,4.3812908 0.9296875,0 c 0,-8.659105 -4.4176154,-16.783173 -13.0566405,-24.427734 -8.689917,-7.693686 -19.503756,-11.511719 -32.404297,-11.511719 z"
       style="fill:url(#linearGradient25);fill-opacity:1;fill-rule:nonzero;stroke:none"
       clip-path="url(#clipPath4)"
       transform="matrix(0.13479919,0,0,-0.13479919,33.100931,12.500415)" /><path
       style="color:#000000;fill:url(#linearGradient53);fill-opacity:1;stroke-width:1.41601;stroke-linecap:round;stroke-dashoffset:12.825;-inkscape-stroke:none"
       d="m 18.994831,27.0096 c -0.04803,-0.0025 -0.09898,-0.0036 -0.152845,-0.0066 a 1.5930103,1.5930103 0 0 0 -1.681579,1.499265 1.5930103,1.5930103 0 0 0 1.501936,1.682294 c 0.0527,0.003 0.107929,0.0045 0.166916,0.0075 a 1.5930103,1.5930103 0 0 0 1.673042,-1.510141 1.5930103,1.5930103 0 0 0 -1.507471,-1.672326 z"
       id="path17" /><path
       style="color:#000000;fill:url(#linearGradient54);fill-opacity:1;stroke-width:1.41601;stroke-linecap:round;stroke-dashoffset:12.825;-inkscape-stroke:none"
       d="m 29.40958,26.075195 a 1.5930103,1.5930103 0 0 0 -1.21503,-0.113688 c -0.282129,0.08715 -0.56362,0.16799 -0.850073,0.244651 a 1.5930103,1.5930103 0 0 0 -0.0027,-7.25e-4 c -0.581416,0.155855 -1.16482,0.289254 -1.747603,0.399283 a 1.5930103,1.5930103 0 0 0 -1.269059,1.86176 1.5930103,1.5930103 0 0 0 1.86176,1.26906 c 0.657242,-0.124086 1.318172,-0.274592 1.979262,-0.451738 0.002,-5e-4 0.004,-6.84e-4 0.006,-0.0013 0.325177,-0.08711 0.647477,-0.178955 0.964661,-0.276939 a 1.5930103,1.5930103 0 0 0 1.051872,-1.991536 1.5930103,1.5930103 0 0 0 -0.779176,-0.938898 z"
       id="path16" /><path
       style="color:#000000;fill:url(#linearGradient55);fill-opacity:1;stroke-width:1.41601;stroke-linecap:round;stroke-dashoffset:12.825;-inkscape-stroke:none"
       d="m 6.7080136,19.51131 a 1.5930103,1.5930103 0 0 0 -1.0925332,0.54045 c -1.8911738,2.170409 -2.9428058,3.812647 -2.9428058,3.812647 l -0.9377641,1.469513 1.545566,0.803528 c 0,0 0.6574307,0.338334 1.7449255,0.796819 a 1.5930103,1.5930103 0 0 0 0.064163,-0.02576 1.5930103,1.5930103 0 0 0 0.087719,0.08936 c 1.5513017,0.646189 3.9665146,1.534976 6.918147,2.220203 a 1.5930103,1.5930103 0 0 0 1.911202,-1.191501 1.5930103,1.5930103 0 0 0 -1.191501,-1.911204 C 10.128711,25.491705 7.9391051,24.682263 6.511549,24.091327 6.9500337,23.481909 7.0230008,23.288315 8.0174697,22.147009 A 1.5930103,1.5930103 0 0 0 7.8641009,19.898385 1.5930103,1.5930103 0 0 0 6.7080083,19.511306 Z"
       id="path15" /><path
       style="color:#000000;fill:url(#linearGradient56);fill-opacity:1;stroke-width:1.41601;stroke-linecap:round;stroke-dashoffset:12.825;-inkscape-stroke:none"
       d="m 35.013986,23.282085 a 1.5930103,1.5930103 0 0 0 -1.208425,0.171538 c -0.04202,0.02479 -0.08479,0.04874 -0.128716,0.07431 a 1.5930103,1.5930103 0 0 0 -0.575264,2.179369 1.5930103,1.5930103 0 0 0 2.17937,0.575265 c 0.04744,-0.02763 0.0941,-0.05595 0.142976,-0.0848 a 1.5930103,1.5930103 0 0 0 0.564677,-2.182205 1.5930103,1.5930103 0 0 0 -0.974497,-0.733545 z"
       id="path14" /><path
       style="color:#000000;fill:url(#linearGradient57);fill-opacity:1;stroke-width:1.41601;stroke-linecap:round;stroke-dashoffset:12.825;-inkscape-stroke:none"
       d="m 44.025193,10.349856 a 1.5930103,1.5930103 0 0 0 -2.045233,0.943711 1.5930103,1.5930103 0 0 0 0.943712,2.045232 c 0.887013,0.326849 0.866055,0.358937 1.39083,0.590276 -0.308033,0.418546 -0.259822,0.406668 -0.774767,1.032169 a 1.5930103,1.5930103 0 0 0 -0.03277,0.111473 1.5930103,1.5930103 0 0 0 -0.0645,0.0056 c -1.046517,1.261432 -2.480851,2.831969 -4.25097,4.409846 a 1.5930103,1.5930103 0 0 0 -0.127755,2.250605 1.5930103,1.5930103 0 0 0 2.247217,0.129713 c 1.915815,-1.707751 3.454997,-3.394711 4.58417,-4.755774 a 1.5930103,1.5930103 0 0 0 0.05196,-0.09774 1.5930103,1.5930103 0 0 0 0.05348,-0.02862 c 1.378339,-1.674298 2.14336,-2.870121 2.14336,-2.870121 l 0.940498,-1.468783 -1.548237,-0.804245 c 0,0 -1.34816,-0.696419 -3.510991,-1.493365 z"
       id="path11" /></g></svg>
