<?xml version="1.0" encoding="UTF-8" standalone="no"?>
<!-- Created with Inkscape (http://www.inkscape.org/) -->

<svg
   version="1.1"
   id="svg1"
   width="800"
   height="350"
   viewBox="0 0 800 350"
   sodipodi:docname="okayy-logo.svg"
   xml:space="preserve"
   inkscape:version="1.3.2 (091e20e, 2023-11-25, custom)"
   xmlns:inkscape="http://www.inkscape.org/namespaces/inkscape"
   xmlns:sodipodi="http://sodipodi.sourceforge.net/DTD/sodipodi-0.dtd"
   xmlns="http://www.w3.org/2000/svg"
   xmlns:svg="http://www.w3.org/2000/svg"><defs
     id="defs1" /><sodipodi:namedview
     id="namedview1"
     pagecolor="#505050"
     bordercolor="#ffffff"
     borderopacity="1"
     inkscape:showpageshadow="0"
     inkscape:pageopacity="0"
     inkscape:pagecheckerboard="1"
     inkscape:deskcolor="#505050"
     inkscape:zoom="0.97125"
     inkscape:cx="399.4852"
     inkscape:cy="310.42471"
     inkscape:window-width="1920"
     inkscape:window-height="991"
     inkscape:window-x="-9"
     inkscape:window-y="-9"
     inkscape:window-maximized="1"
     inkscape:current-layer="g1" /><g
     inkscape:groupmode="layer"
     inkscape:label="Image"
     id="g1"><g
       id="g14"
       transform="matrix(1.1117625,0,0,1.1117625,-45.849719,-327.55463)"><path
         style="fill:#223b8b;fill-opacity:1"
         d="m 547.19973,522.47064 c -6.86574,-1.73813 -12.97452,-7.81683 -14.80911,-14.73619 -0.6678,-2.5187 -0.66838,-8.31291 -10e-4,-10.84043 1.32742,-5.02785 4.49848,-8.56086 11.70424,-13.0402 1.5093,-0.93822 32.13207,-17.97787 68.0506,-37.86587 35.91852,-19.888 65.21164,-36.25404 65.09582,-36.36899 -0.11583,-0.11494 -29.5146,-16.44493 -65.3306,-36.28885 -35.816,-19.84393 -66.38695,-36.86291 -67.93545,-37.81995 -9.31768,-5.75876 -12.07828,-9.90936 -12.07982,-18.16221 -10e-4,-5.42259 1.30977,-9.2888 4.43361,-13.07712 4.22769,-5.12697 10.02137,-7.79615 16.22166,-7.47341 3.42397,0.17823 5.57814,0.85148 10.91275,3.41064 3.78757,1.817 196.05754,108.55231 196.84764,109.27652 0.30848,0.28276 -21.87367,12.75282 -96.64,54.32778 -53.37222,29.67842 -98.48039,54.67582 -100.24039,55.54977 -5.3298,2.64658 -7.54199,3.32976 -11.2,3.45884 -2.09213,0.0738 -3.83352,-0.0475 -5.02987,-0.35033 z"
         id="path14" /><path
         style="fill:#223b8b;fill-opacity:1"
         d="m 245.6696,522.27092 c -1.232,-0.34737 -4.02687,-1.49202 -6.21082,-2.54367 C 237.27484,518.67561 191.80666,493.52336 138.4184,463.83337 63.629484,422.24217 41.440733,409.76734 41.749216,409.48458 42.53931,408.76037 234.80929,302.02506 238.59686,300.20806 c 5.23424,-2.51101 7.4694,-3.20793 10.91274,-3.4026 3.5126,-0.19857 6.27504,0.38026 9.35786,1.96082 5.43987,2.78903 9.37067,7.61604 10.82508,13.29315 0.6662,2.60044 0.49498,9.27897 -0.30123,11.74972 -1.26917,3.93838 -4.82102,7.652 -10.99989,11.50089 -1.717,1.06954 -32.42582,18.17957 -68.24182,38.02228 -35.816,19.84271 -65.21483,36.1717 -65.33073,36.28664 -0.1159,0.11495 29.03975,16.40899 64.79034,36.20899 35.75058,19.8 66.15741,36.69704 67.57073,37.54897 9.91634,5.97749 12.96966,10.42035 12.96966,18.87207 0,6.30618 -1.58604,10.12838 -6.07409,14.63794 -5.34308,5.36869 -11.78107,7.25189 -18.40591,5.38399 z"
         id="path13" /><path
         id="path9"
         style="fill:#4224f9;fill-opacity:1"
         d="m 298.91792,607.09153 c -12.56799,-1.07166 -19.55001,-6.58438 -21.1187,-16.67448 -0.95613,-6.15003 0.99262,-12.40927 5.16142,-16.57806 4.59616,-4.59617 11.06444,-6.40241 22.94896,-6.40841 l 5.2,-0.003 v -90.56 -90.56 l -6,-0.002 c -11.87204,-0.004 -17.96502,-1.80412 -22.51505,-6.65285 -3.47932,-3.70774 -4.90154,-7.53355 -4.90154,-13.18527 0,-5.8428 1.69582,-10.16813 5.3628,-13.67824 2.3965,-2.29399 4.07941,-3.30112 7.3333,-4.38859 5.07466,-1.69598 6.51026,-1.76923 34.71413,-1.77128 l 25.99363,-0.002 0.0864,6.7066 0.0864,6.7066 2.56,-1.63686 c 14.4512,-9.2401 29.39073,-14.59025 46.4,-16.61677 4.4285,-0.52762 17.39353,-0.5355 22.08,-0.0134 19.80362,2.20618 36.29238,8.89915 51.36,20.84757 4.32129,3.42672 13.53956,12.64499 16.96628,16.96627 12.72722,16.04974 19.17552,33.84552 19.19003,52.96 0.0141,18.56665 -5.62444,34.96861 -16.88607,49.12 -3.17448,3.98907 -9.90308,10.66782 -14.31024,14.20423 -10.67563,8.56639 -24.07197,15.68213 -36.50062,19.38807 -16.11569,4.80532 -35.05659,5.61848 -51.65846,2.21776 -11.94741,-2.44729 -24.66294,-7.3525 -35.94717,-13.86717 -1.69851,-0.98059 -3.16144,-1.78289 -3.25097,-1.78289 -0.0895,0 -0.16278,14.76 -0.16278,32.8 v 32.8 l 13.84,9e-4 c 7.84052,5.2e-4 15.08845,0.14968 16.72,0.34411 9.18249,1.09425 14.78018,4.25383 17.81403,10.05499 1.63923,3.13447 2.18597,5.53555 2.18597,9.6 0,5.6755 -1.38251,9.41467 -4.84778,13.11145 -3.05276,3.25669 -6.76015,5.02913 -12.88329,6.15926 -2.60996,0.48172 -6.97068,0.54295 -42.42893,0.59584 -21.736,0.0324 -40.90225,-0.0589 -42.59168,-0.20297 z M 421.6696,478.9488 c 14.39064,-2.24988 25.81475,-8.20587 35.68377,-18.60382 11.95295,-12.59358 15.17787,-24.87456 10.24043,-38.99703 -1.52283,-4.35569 -5.76001,-12.76554 -8.04172,-15.96101 -6.5076,-9.11367 -16.90558,-16.97751 -27.32248,-20.66358 -10.66813,-3.77497 -23.66137,-4.58692 -35.52,-2.21964 -7.17794,1.4329 -15.41205,4.94297 -21.16014,9.02024 -7.48122,5.30661 -14.94574,14.10766 -19.47463,22.96157 -6.00742,11.74444 -6.53907,22.56417 -1.61429,32.85289 2.50728,5.23815 5.69211,9.43335 11.25086,14.82014 3.83568,3.71704 5.92025,5.39072 10.12986,8.13319 7.32901,4.77468 17.2303,8.10061 27.10834,9.1059 4.1279,0.42011 14.79847,0.16426 18.72,-0.44885 z" /></g></g></svg>
